<svg width="1059" height="840" viewBox="0 0 1059 840" fill="none" xmlns="http://www.w3.org/2000/svg">
<path fill-rule="evenodd" clip-rule="evenodd" d="M305.507 1.907C270.69 6.324 239.66 15.737 206.705 31.877C138.007 65.524 82.1461 122.885 44.7051 198.227C21.0011 245.927 6.66013 298.306 1.12313 357.399C-0.373875 373.382 -0.374875 418.31 1.12313 433.899C8.92712 515.152 31.9451 582.057 73.5431 644.399C148.74 757.095 279.815 830.21 399.205 826.058C441.434 824.59 480.377 815.475 518.822 798.063C536.172 790.205 536.205 790.187 536.205 788.849C536.205 787.687 508.918 735.024 479.752 679.899C472.477 666.149 464.103 650.287 461.143 644.649C458.183 639.011 455.299 634.4 454.733 634.401C454.168 634.402 448.515 636.374 442.173 638.782C382.245 661.533 323.446 660.351 272.609 635.374C168.913 584.427 116.372 444.988 152.797 317.399C170.222 256.362 205.601 206.827 252.554 177.726C296.846 150.274 350.355 142.464 402.53 155.836C441.753 165.889 481.241 189.269 516.483 223.306C536.974 243.095 556.255 270.156 571.77 300.899C582.039 321.248 586.931 333.272 595.124 358.305L600.822 375.711L604.139 366.805C636.89 278.892 695.505 204.511 765.234 162.38C776.811 155.385 796.809 145.423 799.302 145.408C803.664 145.383 829.969 171.011 843.943 188.899C872.763 225.793 893.332 268.494 905.12 315.899C911.845 342.947 914.166 361.288 914.862 392.899C915.632 427.902 913.316 449.227 905.172 482.107C885.678 560.811 839.617 630.602 767.505 690.7L754.304 701.701L755.66 704.8C756.406 706.504 766.764 728.374 778.678 753.399C790.593 778.424 804.642 807.981 809.898 819.081L819.455 839.264L833.227 828.882C881.386 792.58 925.57 747.17 960.864 697.705C1012.21 625.738 1044.32 544.437 1055.18 458.899C1060.43 417.517 1060.24 371.015 1054.63 329.399C1041.87 234.596 997.973 143.966 933.765 79.86C900.091 46.24 857.869 18.431 818.332 3.83101L807.959 0L797.332 1.774C741.67 11.061 690.65 35.856 643.942 76.318C630.07 88.335 595.655 123.771 589.73 132.137C589.638 132.268 585.407 127.478 580.33 121.493C568.77 107.866 543.724 83.287 531.205 73.285C484.247 35.767 435.976 13.63 379.697 3.80301C366.991 1.58401 361.046 1.132 340.705 0.835999C323.971 0.591999 313.315 0.915998 305.507 1.907Z" fill="#D0633C"/>
</svg>
