<svg style="position: absolute; width: 0; height: 0; overflow: hidden;" aria-hidden="true" version="1.1" xmlns="http://www.w3.org/2000/svg" xmlns:xlink="http://www.w3.org/1999/xlink">
    <defs>
        <symbol id="lviv" viewBox="0 0 131 186" fill="none">
            <path fill="currentColor" clip-rule="evenodd" d="M50.9986 1.337c-8.937 2.542-14.906 5.356-22.51 10.613-21.982 15.196-32.508 42.828-27.081 71.09 4.501 23.437 20.133 51.846 49.772 90.456 8.334 10.855 11.467 13.046 17.142 11.981 4.031-0.756 4.97-1.735 16.38-17.099 14.228-19.158 20.9724-29.702 29.4324-46.017 19.376-37.364 21.603-61.622 8.076-87.983-5.404-10.53-18.123-22.81-29.2114-28.201-4.675-2.274-10.885-4.621-13.799-5.216-7.016-1.434-22.569-1.226-28.201 0.376zM54.4986 8.285c-12.757 2.935-25.822 11.023-33.591 20.797-9.219 11.598-14.791 29.392-13.513 43.15 2.361 25.403 15.032 50.567 46.65 92.646 9.009 11.989 11.26 14.421 12.819 13.845 1.124-0.416 12.577-15.269 20.314-26.345 14.3754-20.578 26.4754-43.485 32.4854-61.5 2.582-7.739 2.834-9.753 2.812-22.5-0.022-12.753-0.269-14.668-2.773-21.5-8.443-23.03-28.1934-38.281-51.2034-39.537-4.834-0.264-10.374 0.109-14 0.944zM63.7486 22.958c-1.324 0.771-1.75 2.331-1.75 6.402 0 4.51-0.325 5.487-2.005 6.02-2.97 0.942-7.862 5.34-9.531 8.567-1.682 3.252-1.904 9.909-0.496 14.819 0.859 2.997 0.692 3.592-1.5 5.316-2.133 1.678-2.468 2.753-2.468 7.934 0 5.98-1.199 9.862-3.046 9.862-0.537 0-3.014 0.958-5.506 2.13-6.847 3.218-7.779 5.791-8.025 22.156-0.222 14.737 0.448 17.083 4.57 16.005 2.649-0.692 2.971-2.396 3.262-17.291l0.245-12.5 3.5-1.707c1.925-0.939 5.3-2.514 7.5-3.5l4-1.793 0.291-7.711c0.275-7.256 0.467-7.836 3.25-9.818 3.322-2.365 3.828-5.827 1.459-9.971-1.689-2.955-1.919-8.349-0.47-11.055 1.312-2.452 6.101-4.945 9.497-4.945 4.128 0 8.473 4.991 8.473 9.732 0 2.137-0.661 4.759-1.468 5.827-0.808 1.067-1.48 3.516-1.494 5.441-0.021 2.843 0.528 3.815 2.925 5.179 2.824 1.606 2.963 2.013 3.244 9.5l0.293 7.821 4 1.793c2.2 0.986 5.575 2.561 7.5 3.5l3.5 1.707 0.5 14.289c0.393 11.22 0.822 14.492 2 15.235 2.201 1.387 2.797 1.216 4.4234-1.274 1.147-1.756 1.402-5.109 1.163-15.279-0.37-15.731-1.356-18.277-8.3094-21.439-2.627-1.196-5.452-2.525-6.277-2.956-1.041-0.543-1.653-2.986-2-7.988-0.421-6.066-0.871-7.486-2.848-8.975-2.31-1.741-2.322-1.845-0.77-6.417 2.99-8.808-1.478-18.969-9.632-21.902-2.521-0.907-2.75-1.423-2.75-6.192 0-2.861-0.54-5.742-1.2-6.402-1.433-1.433-1.778-1.443-4.05-0.12zM59.7616 102.443c-4.103 2.226-5.763 6.351-5.763 14.318 0 6.159 0.242 7.059 2.048 7.632 3.52 1.117 4.952-1.179 4.952-7.937 0-6.535 1.067-8.588 4.45-8.563 3.966 0.03 4.891 1.575 5.48 9.155 0.544 7 0.683 7.33 3.07 7.33 2.418 0 2.51-0.247 2.799-7.488 0.387-9.708-0.181-11.665-4.076-14.039-3.8-2.317-9.132-2.485-12.96-0.408z" fill-rule="evenodd" />
        </symbol>
        <symbol id="location" viewBox="0 0 125 178" fill="none">
            <path fill="currentColor" clip-rule="evenodd" d="M46.9483 1.2767c-22.162 6.176-39.314 23.722-45.028 46.061-2.555 9.992-2.561 22.378-0.014 33 4.055 16.912 16.938 42.6203 35.708 71.2543 15.584 23.774 17.663 26.031 24.037 26.102 5.906 0.065 8.024-1.909 18.637-17.371 27.1257-39.522 39.2987-63.0073 43.2427-83.4323 6.117-31.673-10.083-61.882-39.3917-73.46-6.774-2.676-9.121-3.077-19.691-3.362-8.581-0.232-13.567 0.112-17.5 1.208zM50.9483 8.2957c-19.931 4.316-36.247 20.402-41.478 40.893-5.99 23.462 3.842 51.6123 34.242 98.0403 13.589 20.755 15.93 23.686 18.612 23.303 5.006-0.714 38.0187-53.078 47.2367-74.9283 12.299-29.149 9.175-54.087-9.076-72.458-8.0757-8.129-16.2377-12.629-27.0367-14.906-8.536-1.8-13.993-1.787-22.5 0.056zM51.3113 34.6507c-13.579 6.167-20.602 22.532-15.482 36.078 2.739 7.248 6.718 11.908 13.263 15.534 4.698 2.601 6.339 2.964 13.356 2.949 6.28-0.014 8.885-0.487 12.116-2.203 6.61-3.508 10.094-6.988 13.055-13.04 5.98-12.224 2.544-27.337-8.034-35.332-2.656-2.007-6.525-4.157-8.599-4.778-5.76-1.726-14.943-1.356-19.675 0.792zM56.4483 40.7387c-4.522 1.404-10.53 6.846-12.607 11.419-1.017 2.239-1.859 6.223-1.871 8.853-0.095 20.775 25.489 28.895 37.434 11.882 2.721-3.876 3.044-5.115 3.044-11.664s-0.323-7.788-3.044-11.664c-5.119-7.291-15.298-11.204-22.956-8.826z" fill-rule="evenodd" />
        </symbol>
        <symbol id="installation" viewBox="0 0 157 174" fill="none">
            <path fill="currentColor" clip-rule="evenodd" d="M138.769 0.6717c-5.621 2.093-87.9772 43.899-89.8792 45.625-5.637 5.116-6.792 14.641-2.521 20.803 1.429 2.063 6.154 6.961 10.5 10.885 4.345 3.923 7.9 7.553 7.9 8.067 0 0.513-1.492 2.562-3.316 4.552-3.05 3.328-3.51 3.515-5.722 2.332-5.969-3.195-14.108 0.283-15.96 6.82-0.759 2.6773-6.142 9.2293-19.473 23.7003-16.174 17.558-18.566 20.584-19.585 24.785-3.434 14.158 5.875 25.715 20.714 25.715 10.511 0 9.74 0.685 48.592-43.171 9.188-10.371 9.905-12.09 7.203-17.273-1.51-2.896-1.469-3.01 2.489-6.969l4.025-4.025 3.767 3.517c19.5962 18.3 20.7372 18.993 28.7872 17.483 4.171-0.782 9.811-5.438 11.275-9.307 0.978-2.586 7.093-22.4163 22.62-73.3553 7.223-23.696 7.941-29.162 4.558-34.71-2.951-4.84-10.618-7.468-15.974-5.474zM96.5648 29.9637c-26.257 13.188-44.121 22.731-44.75 23.905-2.504 4.68-1.355 7.041 8.138 16.722 5.052 5.151 9.746 9.365 10.433 9.365s2.908-2.025 4.937-4.5c2.028-2.475 4.443-4.5 5.366-4.5 2.116 0 4.089 1.925 4.05 3.95-0.029 1.55-22.836 26.7943-25.657 28.4003-1.039 0.591-2.361 0.02-4.338-1.874-3.546-3.3973-7.975-2.8933-7.975 0.908 0 3.045-1.27 4.619-21.595 26.767-17.877 19.481-19.198 21.598-17.392 27.895 2.326 8.108 12.628 12.579 19.807 8.596 1.275-0.708 8.025-7.623 15-15.366 6.974-7.744 16.167-17.888 20.43-22.542 4.262-4.655 7.75-8.797 7.75-9.204 0-0.408-1.123-2.076-2.496-3.708-1.813-2.155-2.251-3.426-1.598-4.644 0.494-0.923 6.384-7.415 13.088-14.4283 12.655-13.237 16.061-15.304 17.54-10.642 0.514 1.618-0.286 3.082-3.432 6.288-2.256 2.299-4.102 4.683-4.102 5.298 0 1.475 17.9122 18.3173 20.5512 19.3233 2.752 1.05 6.993 0.148 8.803-1.872 0.81-0.905 5.091-13.57 9.512-28.1453 4.422-14.575 10.467-34.382 13.434-44.015 8.149-26.458 8.403-27.639 6.628-30.816-3.1-5.55-4.774-4.945-52.1322 18.839z" fill-rule="evenodd" />
        </symbol>
        <symbol id="easy-care" viewBox="0 0 171 152" fill="none">
            <path fill="currentColor" clip-rule="evenodd" d="M52.7987 1.4924c-0.606 0.73-1.545 4.443-2.086 8.25-2.032 14.278-7.908 26.445-17.186 35.588-6.573 6.478-17.454 12.302-25.871 13.847-10.31 1.893-10.179 7.045 0.226 8.861 13.7 2.391 26.401 11.523 34.251 24.627 4.2 7.012 8.523 19.9346 8.523 25.4796 0 5.549 4.121 9.071 6.751 5.77 0.548-0.687 1.302-3.5 1.675-6.25 3.527-26.0196 19.916-45.2326 42.5123-49.8376 10.729-2.187 10.752-6.65 0.044-8.649-8.4693-1.581-17.4553-6.507-24.4093-13.38-9.631-9.519-15.429-21.497-17.507-36.168-1.223-8.636-3.899-11.781-6.923-8.138zM52.6387 30.2114c-4.248 11.358-16.112 24.635-27.202 30.441l-5.469 2.864 5.062 2.523c2.785 1.387 8.584 5.886 12.887 9.998 6.471 6.182 8.631 9.101 12.491 16.877l4.668 9.4006 1.17-3.3786c4.067-11.747 12.765-22.92 23.151-29.738 4.164-2.734 8.063-5.209 8.665-5.502 0.727-0.353 0.648-0.736-0.237-1.141-0.733-0.336-4.643-2.825-8.689-5.532-8.614-5.761-15.011-13.624-20.483-25.175l-3.703-7.817zM148.868 30.4154c-0.568 0.688-1.354 2.97-1.747 5.071-0.961 5.14-4.766 9.414-9.521 10.694-6.69 1.802-7.158 6.884-0.771 8.365 4.511 1.046 8.742 5.398 9.964 10.25 1.694 6.728 7.233 8.38 8.409 2.51 1.083-5.402 3.924-9.472 7.954-11.391 6.741-3.21 7-3.408 7-5.358 0-1.32-1.754-2.727-5.808-4.659-5.881-2.801-8.692-6.563-8.692-11.628 0-3.878-4.607-6.493-6.788-3.854zM148.321 47.4304l-2.834 3.027 3.008 3.008 3.007 3.008 2.952-2.952 2.952-2.952-2.861-3.202c-1.573-1.761-2.98-3.149-3.125-3.083-0.145 0.065-1.54 1.481-3.099 3.146zM122.856 113.365c-0.66 0.66-1.2 2.503-1.2 4.096 0 4.204-3.382 8.303-8.448 10.237-6.87 2.624-7.175 6.684-0.634 8.445 4.647 1.251 7.857 4.595 8.707 9.07 0.855 4.498 2.081 5.952 5.019 5.952 2.462 0 3.633-1.77 4.812-7.275 0.814-3.799 3.681-6.415 8.431-7.695 6.435-1.732 6.636-7.075 0.314-8.34-4.353-0.87-8.046-4.422-9.352-8.994-0.66-2.308-1.625-4.758-2.147-5.446-1.2-1.584-3.943-1.609-5.502-0.05zM123.462 129.354l-2.501 2.729 2.598 2.471 2.597 2.47 2.734-2.368 2.735-2.368-2.831-2.832-2.832-2.831z" fill-rule="evenodd" />
        </symbol>
        <symbol id="discount" viewBox="0 0 220 136" fill="none">
            <path fill="currentColor" clip-rule="evenodd" d="M8.985 2.261C5.701 3.916 3.897 5.717 2.25 8.984 0.163 13.123 0 14.762 0 31.611c0 13.342 0.332 18.427 1.25 19.15 0.688 0.541 3.039 1.259 5.227 1.596 10.927 1.684 16.849 13.975 11.402 23.667-2.461 4.379-8.952 8.998-12.645 8.998C0.491 85.022 0 86.936 0 105.436c0 16.04 0.162 17.578 2.275 21.573 4.564 8.631-3.723 8.013 107.492 8.013 108.004 0 102.743 0.301 107.334-6.137 2.296-3.218 2.412-4.172 2.71-22.187 0.326-19.686-0.039-21.676-3.973-21.676-3.364 0-9.851-3.974-11.849-7.258-6.184-10.169-1.043-22.545 10.511-25.302 5.526-1.318 5.5-1.217 5.5-21.828 0-21.538-0.706-24.329-7.113-28.112-3.317-1.958-5.426-2.005-101.402-2.261L13.469 0zM10.635 10.095 8 12.167 8.01 28.345 8.021 44.522l6.01 2.797c4.821 2.243 6.714 3.856 9.563 8.147 3.091 4.655 3.564 6.176 3.643 11.703 0.155 10.834-6.037 20.257-15.374 23.398L8.5 91.698 8.225 107.219c-0.249 14.1-0.097 15.739 1.662 17.912l1.937 2.391h96.838c53.261 0 98.059-0.342 99.551-0.76 3.957-1.108 4.955-5.799 4.593-21.584L212.5 91.833l-3.875-1.331C200.033 87.552 194 78.694 194 69.03c0-10.335 4.644-17.705 14.25-22.614l4.75-2.428V29.455c0-15.08-0.95-19.433-4.545-20.812-0.89-0.341-45.171-0.621-98.402-0.621-96.399 0-96.794 8e-3-99.418 2.073zM82.684 32.438c-7.869 2.874-11.108 8.05-10.479 16.745 0.345 4.768 0.962 6.408 3.359 8.929 4.065 4.276 7.587 5.91 12.738 5.91 8.232 0 15.698-7.496 15.698-15.762 0-11.414-11.009-19.586-21.316-15.822zM132.474 33.691c-0.918 0.918-9.348 11.606-18.732 23.75-9.385 12.145-20.29 26.131-24.234 31.082-8.791 11.035-9.634 12.522-8.374 14.775 2.214 3.955 5.28 2.044 12.873-8.026 4.044-5.363 15.821-20.65 26.173-33.972C130.531 47.979 139 36.648 139 36.122c0-1.189-2.84-4.1-4-4.1-0.471 0-1.608 0.751-2.526 1.669zM82.747 41.006c-3.09 2.431-4.091 5.981-2.709 9.615 1.423 3.743 3.801 5.332 8.038 5.369C92.568 56.03 96 52.695 96 48.289c0-4.473-0.876-6.151-4.072-7.804-3.819-1.975-6.178-1.841-9.181 0.521zM125.401 74.927c-11.187 5.081-12.631 21.051-2.495 27.593 7.655 4.94 15.541 4.07 21.346-2.356 5.787-6.405 5.84-15.37 0.126-21.503-5.238-5.623-11.921-6.938-18.977-3.734zM126.174 83.336c-3.068 3.266-2.936 9.015 0.281 12.231 2.415 2.416 6.521 3.169 10 1.834 2.104-0.808 4.545-5.574 4.545-8.875 0-6.603-10.157-10.159-14.826-5.19z" fill-rule="evenodd" />
        </symbol>
        <symbol id="details" viewBox="0 0 161 149" fill="none">
            <path fill="currentColor" clip-rule="evenodd" d="M66.2183 0.5368c-8.098 1.303-16.406 4.002-25.151 8.17-21.397 10.199-35.898 28.602-39.896 50.631-1.549 8.535-1.553 9.924-0.063 18.746 1.847 10.931 5.845 20.532 11.72 28.1482l4.045 5.243-5.146 16.187c-5.364 16.876-5.741 20.957-1.937 20.957 2.33 0 8.998-2.729 26.781-10.959l12.725-5.889 9.473 2.589c13.426 3.671 32.07 3.648 46.1817-0.057 31.441-8.253 52.452-31.152 55.221-60.1842 2.079-21.802-10.053-45.744-30.258-59.711-5.917-4.09-19.406-10.28-26.673-12.24-6.8887-1.857-29.4417-2.851-37.0227-1.631zM64.8063 8.7078c-20.124 3.947-36.933 14.454-46.854 29.287-6.197 9.265-9.211 17.837-9.889 28.124-0.907 13.733 2.661 24.628 12.236 37.3652l4.762 6.335-4.531 14.4c-2.492 7.92-4.4 14.4-4.24 14.4s7.638-3.396 16.619-7.547l16.327-7.547 9.003 2.629c41.7 12.18 85.3597-9.056 93.0287-45.2482 2.744-12.95 1.559-23.044-4.085-34.787-8.672-18.043-25.456-31.08-46.942-36.465-8.5867-2.151-26.8077-2.638-35.4347-0.946zM41.0973 63.9888c-5.797 4.987-2.109 14.63 5.596 14.63 4.76 0 7.824-2.289 8.6-6.423 1.61-8.586-7.579-13.898-14.196-8.207zM74.1963 64.0738c-5.326 5.325-1.593 14.545 5.889 14.545 5.381 0 8.156-2.892 8.156-8.5 0-3.708-0.489-5.072-2.361-6.588-3.366-2.726-8.661-2.48-11.684 0.543zM107.196 64.0738c-3.323 3.322-3.391 9.317-0.141 12.371 4.59 4.312 12.72 1.872 14.264-4.282 2.06-8.206-8.155-14.057-14.123-8.089z" fill-rule="evenodd" />
        </symbol>
        <symbol id="coupon-booked" viewBox="0 0 158 163" fill="none">
            <path fill="currentColor" clip-rule="evenodd" d="M69.284 0.8852c-22.581 2.929-43.541 16.544-56.637 36.789C3.955 51.1112-6e-3 65.2252 0 82.7482c3e-3 9.509 0.468 13.148 2.616 20.4988 9.048 30.961 32.772 53.051 62.914 58.58 8.341 1.53 25.394 0.755 34.098-1.55 21.185-5.61 41.378-22.904 50.923-43.612 6.174-13.395 7.078-17.7848 7.072-34.3558-4e-3-12.925-0.329-16.038-2.349-22.5-10.262-32.84-35.019-54.557-67.118-58.877-9.174-1.234-9.703-1.236-18.872-0.047zM67.891 8.7762c-33.349 6.081-57.709 33.727-60.402 68.55-2.461 31.8178 18.882 64.0728 49.326 74.5468 18.819 6.475 42.676 3.611 59.272-7.116 15.817-10.223 27.317-25.741 31.969-43.139 2.996-11.2028 3.419-18.9938 1.664-30.6178-5.31-35.16-33.569-61.38-67.592-62.715-5.225-0.205-11.631 0.016-14.237 0.491zM98.954 69.9962c-7.879 8.352-18.025 19.04-22.546 23.75l-8.22 8.5628-10.901-10.8538c-9.882-9.84-11.1-10.748-13.03-9.715-1.171 0.627-2.124 1.911-2.119 2.854 0.014 2.323 23.708 27.2148 25.905 27.2148 1.93 0 9.962-8.225 45.308-46.3988 2.598-2.806 4.735-5.799 4.75-6.651 0.032-1.846-1.884-3.95-3.597-3.95-0.673 0-7.671 6.834-15.55 15.187z" fill-rule="evenodd" />
        </symbol>
        <symbol id="color" viewBox="0 0 173 174" fill="none">
            <path fill="currentColor" clip-rule="evenodd" d="M75.874 0.9543c-9.187 1.534-23.619 6.736-31.318 11.289-21.18 12.526-35.349 30.749-42.074 54.112-3.264 11.338-3.317 32.432-0.11 43.7887 10.275 36.389 42.107 62.541 76.684 63.001 23.376 0.311 34.468-12.625 27.11-31.619-3.267-8.434-3.58-10.194-2.508-14.079 1.381-5 4.382-8.229 9.445-10.163 4.384-1.674 4.84-1.658 14.501 0.533 6.695 1.518 11.372 2.052 14.221 1.625 22.918-3.437 35.931-31.3377 28.695-61.5237-5.507-22.972-23.646-42.941-47.375-52.155-13.078-5.078-33.323-7.138-47.271-4.809zM79.556 8.3933c-35.282 4.789-64.247 31.172-70.594 64.3-3.129 16.332-1.218 34.0327 5.184 48.0017 9.472 20.67 25.254 34.588 47.91 42.249 9.975 3.373 26.058 3.449 32.229 0.151 7.556-4.037 8.998-10.974 4.226-20.329-4.505-8.83-3.424-18.666 2.857-26.005 6.473-7.562 14.892-9.516 27.688-6.426 13.193 3.186 20.815 0.991 27.553-7.935 14.831-19.6417 10.032-52.7137-10.605-73.0837-16.7-16.484-41.536-24.304-66.448-20.923zM83.546 28.1053c-7.611 5.18-9.546 12.879-5.06 20.137 3.111 5.034 7.167 6.954 13.42 6.353 4.32-0.415 5.566-1.068 8.949-4.695 3.783-4.056 3.914-4.425 3.516-9.924-0.471-6.51-2.701-10.27-7.466-12.588-4.476-2.177-9.503-1.908-13.359 0.717zM87.573 34.1413c-5.237 2.649-4.954 10.419 0.468 12.889 7.782 3.546 13.161-8.721 5.55-12.657-3.488-1.804-2.953-1.783-6.018-0.232zM41.908 54.9163c-1.732 0.519-4.545 2.533-6.25 4.476-2.623 2.987-3.101 4.338-3.098 8.748 8e-3 11.744 10.083 18.089 20.713 13.045 9.051-4.295 9.921-18.179 1.514-24.165-3.482-2.48-8.751-3.34-12.879-2.104zM124.546 56.1053c-9.742 6.63-10.108 17.093-0.842 24.011 8.933 6.669 21.852-0.622 21.852-12.332 0-10.696-12.36-17.566-21.01-11.679zM44.056 62.0103c-5.197 2.842-6.086 8.452-1.865 11.772 1.449 1.14 3.413 2.073 4.365 2.073 2.78 0 7-3.913 7-6.491 0-3.697-1.025-5.471-4.072-7.046-3.312-1.713-2.902-1.69-5.428-0.308zM127.191 62.9283c-6.573 5.17-0.116 15.295 7.307 11.457 4.76-2.461 5.45-7.229 1.603-11.075-2.998-2.999-5.45-3.104-8.91-0.382zM40.768 106.925c-5.239 2.659-7.212 6.215-7.212 12.998 0 4.65 0.381 5.548 3.799 8.967 4.966 4.965 9.4 5.855 15.572 3.125 7.874-3.483 10.756-11.482 6.877-19.089-3.74-7.335-11.554-9.798-19.036-6.001zM43.191 113.928c-6.259 4.923-0.398 15.054 6.809 11.77 5.537-2.522 5.539-10.759 3e-3-12.863-3.496-1.329-3.794-1.281-6.812 1.093z" fill-rule="evenodd" />
        </symbol>
        <symbol id="working-hours" viewBox="0 0 169 170" fill="none">
            <path fill="currentColor" clip-rule="evenodd" d="M67.0791 1.0914c-18.189 3.818-34.8289 13.866-47.4059 28.627-7.335 8.608-15.959 25.971-18.0971 36.439-2.079 10.175-2.105 26.853-0.0561 36.3166 6.5171 30.1 30.6541 55.619 60.7141 64.189 9.596 2.736 25.5519 3.655 35.5229 2.047 26.5829-4.289 49.3959-20.895 61.8629-45.034 6.103-11.816 8.561-21.129 9.245-35.0186 1.271-25.812-7.862-48.699-26.306-65.923-9.488-8.861-18.929-14.477-31.745-18.882-8.94-3.073-11.1549-3.428-23.4999-3.77-9.149-0.254-15.802 0.078-20.235 1.009zM75.6842 7.3314c-30.428 3.792-55.003 24.11-64.588 53.399-3.1991 9.777-3.4121 11.268-3.4121 23.927-1e-4 11.358 0.372 14.69 2.343 20.9996 8.576 27.451 29.2399 47.397 56.0649 54.116 7.042 1.764 10.537 2.037 21.5 1.68 11.385-0.371 14.2339-0.827 21.8529-3.496 11.126-3.898 18.176-8.143 26.943-16.224 19.22-17.715 28.273-43.1896 24.416-68.7036-1.823-12.061-5.179-20.909-11.75-30.974-9.086-13.918-23.934-25.674-38.801-30.721-10.4578-3.55-24.8408-5.216-34.5688-4.003zM80.8971 34.2784c-0.392 0.392-0.7129 12.684-0.7129 27.317v26.604l17.511 15.2966c13.1678 11.503 18.0658 15.218 19.7498 14.979 1.535-0.218 2.331-1.104 2.532-2.821 0.227-1.945-0.775-3.387-4.5-6.473-2.636-2.183-10.073-8.641-16.5259-14.3506l-11.733-10.38-0.267-25.146-0.2669-25.147-2.5371-0.296c-1.396-0.163-2.859 0.025-3.25 0.417z" fill-rule="evenodd" />
        </symbol>
        <symbol id="waterproof" viewBox="0 0 148 187" fill="none">
            <path fill="currentColor" clip-rule="evenodd" d="M62.927 6.1232c-16.489 10.559-36.474 19.11-55.826 23.887-7.283 1.798-7.479 2.932-6.894 39.929 0.423 26.815 0.801 32.8648 2.526 40.5208 6.025 26.727 17.611 44.279 39.574 59.952 8.301 5.923 28.708 16.548 31.783 16.548 1.365 0 6.724-2.062 11.91-4.582 25.581-12.433 43.936-29.818 52.699-49.918 7.471-17.134 8.669-26.18 8.701-65.7108 0.023-28.247-0.185-32.923-1.524-34.266-0.854-0.855-6.254-2.826-12-4.38-17.838-4.825-31.536-11.099-50.408-23.087-4.378-2.781-8.653-5.038-9.5-5.016-0.848 0.021-5.816 2.777-11.041 6.123zM66.35 13.1772c-16.581 10.323-37.83 19.531-52.673 22.825l-5.75 1.276 4e-3 28.591c4e-3 30.325 0.942 40.2178 5.083 53.6488 7.139 23.151 22.589 39.843 50.371 54.42 7.47 3.92 10.468 5.01 12.442 4.526 4.331-1.061 22.435-11.365 29.738-16.925 15.379-11.709 26.274-28.204 31.428-47.579 2.087-7.846 2.294-11.137 2.687-42.7498l0.426-34.25h-2.132c-3.671 0-28.75-8.828-37.319-13.137-4.503-2.264-12.28-6.695-17.284-9.847l-9.098-5.732zM62.628 65.7102c-4.673 7.563-9.618 16-10.987 18.75-8.145 16.3518-7.521 30.9368 1.766 41.2668 17.565 19.536 48.583 7.478 48.731-18.943 0.056-10.0788-3.141-18.6998-12.644-34.0888-12.932-20.945-12.754-20.709-15.718-20.723-2.331-0.011-3.675 1.645-11.148 13.738zM69.014 69.6692c-2.778 4.285-7.197 12.002-9.819 17.149-4.351 8.54-4.796 10.071-5.091 17.4998-0.28 7.051-2e-3 8.745 2.076 12.642 6.953 13.035 24.179 14.792 33.55 3.423 3.852-4.673 5.618-11.056 4.923-17.793-0.621-6.0108-6.224-17.8928-15.053-31.9208l-5.533-8.792z" fill-rule="evenodd" />
        </symbol>
        <symbol id="telegpam" viewBox="0 0 166 152" fill="none">
            <path fill="currentColor" clip-rule="evenodd" d="M136.241 6.6957c-8.8 3.87-25.45 11.12-37.0005 16.112-67.626 29.23-94.512 41.212-96.376 42.948-4.768 4.442-3.407 11.719 2.769 14.813 1.984 0.994 11.257 4.845 20.607 8.56 9.35 3.714 17.546 7.264 18.214 7.89 0.667 0.626 3.871 11.4613 7.119 24.0773 5.097 19.798 6.274 23.256 8.592 25.25 5.514 4.743 9.347 2.778 18.912-9.691 3.94-5.136 7.891-9.784 8.781-10.329 1.281-0.786 5.125 1.613 18.5005 11.545 9.285 6.895 17.861 12.837 19.059 13.205 2.576 0.792 8.119-1.351 10.542-4.076 1.125-1.264 3.614-11.09 7.192-28.388 5.622-27.1803 11.665-55.6393 18.626-87.7233 2.179-10.048 3.963-19.81 3.963-21.695 0-5.108-3.491-8.638-9.033-9.133-3.822-0.342-6.778 0.617-20.467 6.635zM151.241 8.0817c-5.489 2.464-134.3865 58.657-141.3215 61.609-5.201 2.214-2.22 4.245 18.089 12.329l19.754 7.863 15.739-11.304c8.657-6.216 24.289-17.594 34.739-25.283 10.4505-7.689 20.5545-15.048 22.4535-16.353 4.325-2.971 7.442-2.684 7.84 0.723 0.255 2.184-1.617 3.924-14.5 13.474-8.136 6.031-24.4685 17.868-36.2935 26.306-25.742 18.368-25.068 17.833-24.525 19.433 0.238 0.703 2.489 9.8283 5.003 20.2783 4.816 20.023 5.909 23.5 7.393 23.5 0.503 0 4.392-4.536 8.641-10.08l7.726-10.079-3.152-3.252c-3.386-3.494-3.369-6.047 0.047-7.131 1.469-0.467 7.506 3.576 24.5805 16.462 21.257 16.042 25.304 18.479 26.762 16.12 0.7-1.132 3.818-15.529 10.512-48.5403 4.18-20.609 10.54-50.27 16.573-77.285 1.285-5.755 1.372-7.592 0.411-8.75-1.477-1.78-2.58-1.787-6.471-0.04z" fill-rule="evenodd" />
        </symbol>
        <symbol id="selection" viewBox="0 0 192 176" fill="none">
            <path fill="currentColor" clip-rule="evenodd" d="M71.8633 1.1798c-3.327 1.449-7.415 5.988-7.415 8.234 0 1.074-0.891 0.931-3.96-0.635-2.178-1.111-5.072-2.02-6.431-2.02-2.245 0-36.191 5.228-42.933 6.612-4.293 0.881-9.495 6.001-10.72 10.551-1.146 4.257-0.413 10.31 9.673 79.8372 2.513 17.325 5.196 36.178 5.963 41.895 1.582 11.805 3.41 15.746 8.614 18.566 3.44 1.864 4.221 1.896 15.956 0.644 25.511-2.722 22.089-3.056 28.839 2.814 7.755 6.745 10.459 8.067 16.515 8.075 6.748 8e-3 9.458-1.751 20.0397-13.012 12.69-13.504 72.68-77.2702 79.633-84.6452 5.81-6.163 5.811-6.165 5.811-12.443v-6.28l-19.75-19.917c-10.863-10.955-21.198-20.543-22.968-21.307-4.358-1.882-8.158-1.747-12.454 0.443l-3.595 1.832-2.654-3.326c-3.728-4.673-5.511-5.396-28.867-11.715-22.0897-5.976-24.4467-6.314-29.2967-4.203zM74.7633 7.7658c-1.201 0.484-2.627 1.708-3.169 2.72-0.541 1.011-3.535 11.949-6.652 24.306-3.118 12.357-9.257 36.352-13.643 53.322-4.386 16.9702-7.822 31.0072-7.636 31.1932 0.185 0.186 4.601-4.608 9.811-10.654 5.211-6.045 11.724-13.6002 14.474-16.7892 5.345-6.198 19.37-21.778 42.8527-47.605 11.841-13.022 14.555-16.558 14.582-19 0.064-5.579-0.864-6.104-19.436-10.979-7.6997-2.022-16.8587-4.541-20.3537-5.598-7.035-2.129-7.684-2.183-10.83-0.916zM50.9483 14.3138c-0.55 0.218-9.714 1.734-20.364 3.369-13.623 2.091-19.923 3.478-21.25 4.679-2.771 2.508-2.464 8.361 2.103 40.141 2.193 15.266 4.659 32.481 5.48 38.2562 0.82 5.775 2.671 18.375 4.114 28 1.442 9.625 2.859 19.3 3.148 21.5s1.481 5.057 2.647 6.349c2.002 2.215 2.569 2.31 10.001 1.67 12.325-1.062 12.949-1.654 5.21-4.944-7.086-3.011-11.589-7.304-11.589-11.048 0-1.275 2.933-13.728 6.518-27.673 13.086-50.9042 23.482-92.8572 23.482-94.7592 0-3.497-5.933-6.956-9.5-5.54zM139.515 25.0238c-1.338 0.679-8.936 8.435-16.883 17.235-7.948 8.8-21.765 24.1-30.7057 34-27.577 30.5362-46.472 52.8232-46.596 54.9592-0.291 4.999-0.82 4.423 25.048 27.251 10.434 9.207 11.957 10.214 15.513 10.25 4.531 0.046 1.001 3.378 37.5567-35.443 12.925-13.726 31.938-33.8362 42.25-44.6882 16.405-17.264 18.75-20.136 18.75-22.967 0-2.854-2.093-5.345-17.75-21.127-15.877-16.003-21.385-20.768-23.95-20.72-0.44 8e-3-1.895 0.57-3.233 1.25zM72.6653 127.32c-5.82 4.076-6.566 12.378-1.579 17.583 7.223 7.539 19.362 2.118 19.362-8.648 0-2.87-0.76-4.456-3.4-7.096-2.831-2.831-4.133-3.4-7.777-3.4-2.408 0-5.381 0.702-6.606 1.561zM75.4593 134.246c-1.663 2.003-0.484 6.228 1.954 7.002 4.441 1.409 8.067-4.057 4.835-7.289-1.658-1.658-5.303-1.504-6.789 0.287zM38.2223 138.927c-0.899 2.673 0.571 4.967 4.451 6.947 4.567 2.33 6.082 1.971 2.258-0.534-1.418-0.929-3.407-3.052-4.42-4.718-1.171-1.926-2.004-2.543-2.289-1.695z" fill-rule="evenodd" />
        </symbol>
        <symbol id="seamless" viewBox="0 0 202 157" fill="currentColor">
            <path fill="currentColor" clip-rule="evenodd" d="M64.2747 16.969c-65.608 35.915-62.89 34.283-63.91 38.366-1.324 5.301 0.579 7.435 12.04 13.504 5.429 2.874 11.616 6.295 13.75 7.603l3.88 2.379-12.38 6.868c-15.278 8.476-18.365 11.249-17.475 15.701 0.352 1.758 1.192 3.726 1.867 4.374 1.194 1.146 14.921 8.714 48.728 26.864 9.075 4.872 22.568 12.149 29.983 16.17 18.894 10.246 20.6613 10.401 33.7723 2.977 4.26-2.412 25.195-13.725 46.522-25.141 21.328-11.415 39.216-21.573 39.75-22.572 1.63-3.044 1.094-6.922-1.277-9.244-1.238-1.213-7.762-5.309-14.5-9.102s-12.25-7.173-12.25-7.509c0-0.807 1.403-1.65 15-9.014 12.498-6.769 14-8.077 14-12.189 0-6.085 4.758-3.037-53-33.958C110.153 2.37 106.859 0.8 101.275 0.414L95.2747 0zM90.2747 11.424c-4.4 2.339-20.825 11.255-36.5 19.813-15.675 8.559-32.438 17.681-37.25 20.271-4.813 2.59-8.75 5.127-8.75 5.637s1.912 1.887 4.25 3.06c2.337 1.173 8.075 4.291 12.75 6.93 22.288 12.581 71.775 39.123 73.988 39.684 2.7463 0.696 3.2253 0.457 50.5123-25.191 15.4-8.352 31.712-17.173 36.249-19.601s8.249-4.898 8.25-5.49-6.411-4.471-14.249-8.62-28.369-15.027-45.626-24.174c-17.257-9.146-32.332-16.617-33.5-16.601-1.1683 0.016-5.7243 1.943-10.1243 4.282zM22.5257 91.413c-8.112 4.51-14.605 8.633-14.429 9.163 0.176 0.529 14.688 8.657 32.249 18.062s37.104 19.926 43.429 23.379c16.162 8.824 16.059 8.823 32.1833 0.311 49.867-26.326 77.317-41.394 77.317-42.442 0-1.266-26.976-16.633-29.355-16.722-1.46-0.055-17.091 8.065-42.625 22.14-13.758 7.584-16.637 8.809-20.709 8.809-5.2203 0-6.0313-0.385-41.8113-19.846-11.275-6.132-20.725-11.128-21-11.102-0.275 0.027-7.137 3.738-15.249 8.248z" fill-rule="evenodd" />
        </symbol>
        <symbol id="request" viewBox="0 0 138 178" fill="none">
            <path fill="currentColor" clip-rule="evenodd" d="M44.1536 2.574c-1.682 1.415-3.588 4.34-4.235 6.5L38.7416 13l-10.091 6e-3c-5.551 3e-3-11.825 0.486-13.943 1.075-5.51 1.529-12.023 8.374-13.481 14.168-1.598 6.346-1.652 128.942-0.06 135.266 1.27 5.042 6.522 11.015 11.524 13.105 2.669 1.115 13.508 1.38 56.368 1.38 45.6334 0 53.5834-0.217 56.7684-1.548 4.942-2.064 8.108-5.111 10.342-9.952 1.737-3.763 1.846-7.965 1.84-71l-6e-3-67-2.299-4.5c-1.557-3.049-3.858-5.467-7.138-7.5-4.584-2.841-5.492-3.018-17.173-3.332-10.214-0.274-12.3344-0.592-12.3344-1.848 0-3.034-3.337-8.443-6.085-9.864C90.7646 0.314 85.5276 0 68.6846 0h-21.473zM48.8086 8.08c-1.323 0.771-1.75 2.33-1.75 6.388 0 9.103-1.433 8.532 21.407 8.532 14.372 0 20.539-0.346 21.393-1.2 1.558-1.558 1.558-12.042 0-13.6-1.528-1.528-38.447-1.636-41.05-0.12zM107.047 20.711l-7.5134 0.365-1.989 3.712c-2.923 5.455-5.863 6.09-28.486 6.154-21.98 0.062-25.232-0.713-28-6.67l-1.5-3.229-11.346-0.021c-12.493-0.024-15.533 0.964-18.518 6.018-1.47 2.488-1.635 9.438-1.621 68.614 0.016 70.813-0.138 68.706 5.309 72.75 2.783 2.066 3.578 2.096 55.677 2.096 51.8824 0 52.9054-0.038 55.6764-2.071 1.553-1.139 3.618-3.614 4.59-5.5 1.645-3.191 1.749-7.933 1.5-68.429-0.254-61.948-0.356-65.132-2.165-67.801-3.561-5.254-8.509-6.624-21.614-5.988zM29.5136 58.455C24.1826 63.785 28.4846 74 36.0586 74c4.449 0 9-4.691 9-9.277 0-7.855-9.948-11.866-15.545-6.268zM57.8086 62.08c-2.021 1.177-2.291 3.979-0.55 5.72 0.866 0.866 7.806 1.2 24.929 1.2 20.2254 0 23.9604-0.232 25.2984-1.569 1.779-1.78 0.764-4.76-1.981-5.813-2.755-1.058-45.8044-0.64-47.6964 0.462zM32.3876 91.458c-6.235 2.712-7.424 10.602-2.252 14.953 4.167 3.507 8.273 3.392 12-0.334 4.755-4.755 3.478-12.112-2.539-14.625-4.077-1.704-3.277-1.705-7.209 6e-3zM59.5706 96.876c-3.271 0.7-4.417 3.329-2.472 5.672 1.864 2.246 48.1314 2.138 50.3874-0.117 1.779-1.78 0.764-4.76-1.981-5.813-2.09-0.802-42.0294-0.578-45.9344 0.258zM31.8336 127.518c-5.648 3.149-6.507 9.904-1.852 14.559 3.93 3.93 8.224 3.93 12.154 0 7.461-7.461-1.165-19.652-10.302-14.559zM56.4426 133.442c-0.304 0.792-0.396 2.255-0.205 3.25 0.318 1.651 1.686 1.808 15.726 1.808 13.263 0 15.522-0.229 16.428-1.666 0.763-1.209 0.69-2.101-0.263-3.25-1.863-2.244-30.83-2.374-31.686-0.142z" fill-rule="evenodd" />
        </symbol>
        <symbol id="quality" viewBox="0 0 163 165" fill="none">
            <path fill="currentColor" clip-rule="evenodd" d="M76.127 0.4997c-5.608 1.1301-12.544 5.2121-15.384 9.053-3.913 5.2919-8.114 7.1349-18.205 7.9869-11.106 0.937-16.507 2.945-20.67 7.687-4.409 5.021-5.998 9.433-6.541 18.155-0.675 10.859-0.894 11.4871-5.99 17.2251C2.906 67.8478 0 74.4897 0 81.9457c0 6.875 3.039 14.455 7.41 18.4833 5.503 5.07 7.029 8.861 7.658 19.017 0.419 6.755 1.187 10.656 2.659 13.5 4.535 8.764 12.705 13.443 23.535 13.478 8.873 0.029 12.728 1.771 19.569 8.846 6.367 6.584 12.192 9.18 20.577 9.17 8.649-9e-3 12.419-1.658 19.57-8.562 7.751-7.483 11.84-9.432 19.792-9.432 11.298 0 21.295-5.762 24.686-14.227 0.951-2.374 1.96-8.439 2.272-13.648 0.607-10.143-0.14-8.545 9.619-20.5843 8.217-10.137 7.309-24.238-2.237-34.734-6.444-7.086-6.775-7.885-7.598-18.307-0.811-10.273-2.801-15.619-7.52-20.204-5.089-4.945-9.432-6.516-20.048-7.252-10.54-0.731-12.195-1.495-19.256-8.8909-6.534-6.845-15.733-9.878-24.561-8.0991zM74.48 9.0488c-2.2 0.804-6.475 3.8739-9.5 6.8239-7.612 7.42-10.695 8.743-22.261 9.545-7.465 0.517-10.427 1.151-12.455 2.665-5.463 4.079-6.589 6.697-7.347 17.085-0.885 12.12-1.678 14.151-8.327 21.332-5.785 6.249-8.246 12.638-7.061 18.334 0.886 4.262 4.671 10.511 8.528 14.081 4.602 4.2603 6.114 8.6853 6.863 20.0783 0.503 7.658 1.124 10.673 2.61 12.682 3.42 4.623 8.144 6.508 17.462 6.968 10.161 0.501 17.146 3.718 22.647 10.431 8.76 10.691 19.831 10.837 30.767 0.408 8.541-8.145 13.079-10.202 23.87-10.817 6.756-0.385 9.558-0.999 11.925-2.611 5.998-4.085 7.144-6.713 7.796-17.877 0.674-11.539 1.823-14.483 8.45-21.6383 5.623-6.071 6.533-8.017 6.533-13.962 0-6.7-1.265-9.637-6.609-15.351-6.391-6.832-8.342-11.687-8.369-20.818-0.017-5.815-0.536-8.545-2.272-11.942-3.549-6.945-6.212-8.319-17.505-9.034-11.579-0.733-15.435-2.416-23.433-10.225-7.651-7.469-13.96-9.21-22.312-6.158zM106.973 58.9557c-1.371 0.726-10.346 9.515-19.944 19.531l-17.451 18.211-7.774-8.126c-4.276-4.469-8.428-8.126-9.227-8.126-1.59 0-4.597 2.625-4.597 4.012 0 1.616 19.127 19.4853 21.223 19.8273 1.579 0.258 7.103-4.6793 22.929-20.4913 11.466-11.456 20.848-21.606 20.848-22.554 0-2.66-3.084-3.832-6.007-2.284z" fill-rule="evenodd" />
        </symbol>
        <symbol id="phone" viewBox="0 0 158 168" fill="none">
            <path fill="currentColor" clip-rule="evenodd" d="M26.7118 2.0832c-2.475 1.2-8.593 6.262-13.596 11.249-7.135 7.113-9.46 10.146-10.783 14.068-2.68 7.941-3.019 15.072-1.181 24.854 9.106 48.4618 64.864 106.4018 109.9742 114.2768 14.815 2.586 24.112-1.001 36.138-13.946 8.618-9.278 10.448-12.715 10.448-19.629 0-4.73-0.368-5.535-4.594-10.053-5.559-5.943-18.898-16.661-24.583-19.753-4.835-2.629-10.674-2.895-14.956-0.681-1.669 0.863-5.693 4.013-8.942 7s-6.3792 5.431-6.9562 5.431c-4.299 0-22.81-14.398-31.587-24.5688-5.423-6.284-14.863-20.219-15.891-23.46-0.85-2.677 0.052-3.889 7.68-10.33 11.431-9.651 11.764-16.535 1.609-33.281-9.105-15.016-12.28-19.064-16.732-21.336-5.131-2.617-10.429-2.565-16.048 0.159zM23.5278 13.7192c-12.4 9.863-15.697 15.678-15.772 27.819-0.12 19.501 14.161 48.583 35.872 73.0498 24.517 27.627 57.7642 46.845 77.8072 44.973 3.446-0.321 7.281-1.118 8.521-1.769 7.441-3.907 19.227-16.999 20.348-22.601 0.335-1.676 0.099-3.999-0.524-5.164-1.508-2.818-21.677-19.029-25.891-20.81-4.532-1.916-6.618-1.02-13.898 5.97-5.54 5.32-6.804 6.057-11.1002 6.47-5.771 0.554-7.803-0.37-18.757-8.535-13.925-10.379-28.226-26.8398-35.3-40.6308-3-5.85-3.227-6.855-2.209-9.805 0.666-1.93 4.485-6.437 9.259-10.926 7.768-7.304 8.1-7.795 7.552-11.172-0.722-4.448-14.15-27.027-18-30.267-5.027-4.229-9.351-3.409-17.908 3.398z" fill-rule="evenodd" />
        </symbol>
    </defs>
</svg>